<?xml version="1.0" encoding="UTF-8"?>
<svg xmlns="http://www.w3.org/2000/svg" xmlns:xlink="http://www.w3.org/1999/xlink" width="200px" height="200px" viewBox="24 2 150 154" version="1.1">
  <g id="surface1">
    <path style=" stroke:none;fill-rule:nonzero;fill:rgb(242%,201%,0%);fill-opacity:1;" d="M 108.894531 84.523438 C 117.292969 84.523438 123.65625 83.105469 127.980469 80.261719 C 132.363281 77.421875 135.265625 73.964844 136.6875 69.886719 C 138.167969 65.8125 139.125 59.015625 139.558594 49.507812 C 139.992188 38.945312 142.339844 31.101562 146.601562 25.976562 C 150.921875 20.785156 157.996094 18.191406 167.816406 18.191406 L 167.816406 21.714844 C 164.292969 21.960938 161.886719 23.351562 160.589844 25.882812 C 159.355469 28.351562 158.734375 33.632812 158.734375 41.722656 C 158.734375 53.582031 157.46875 62.753906 154.9375 69.238281 C 152.46875 75.664062 147.464844 80.882812 139.929688 84.894531 C 132.394531 88.910156 122.050781 91.070312 108.894531 91.378906 L 108.894531 120.75 C 108.894531 127.972656 109.296875 132.667969 110.097656 134.828125 C 110.964844 136.929688 112.722656 138.628906 115.378906 139.925781 C 118.097656 141.222656 122.265625 141.871094 127.886719 141.871094 L 127.886719 145.296875 L 72.117188 145.296875 L 72.117188 141.871094 C 77.613281 141.808594 81.6875 141.222656 84.34375 140.109375 C 87.0625 138.9375 88.851562 137.269531 89.71875 135.109375 C 90.644531 132.882812 91.105469 128.097656 91.105469 120.75 L 91.105469 91.378906 C 77.828125 91.070312 67.515625 88.941406 60.164062 84.988281 C 52.816406 81.035156 47.8125 75.878906 45.15625 69.515625 C 42.5625 63.09375 41.265625 53.796875 41.265625 41.632812 C 41.265625 33.847656 40.679688 28.691406 39.503906 26.160156 C 38.328125 23.566406 35.890625 22.082031 32.183594 21.710938 L 32.183594 18.191406 C 38.421875 18.316406 43.457031 19.304688 47.285156 21.15625 C 51.117188 23.007812 54.171875 26.28125 56.457031 30.976562 C 58.804688 35.671875 60.132812 41.847656 60.441406 49.503906 C 60.875 58.953125 61.769531 65.71875 63.128906 69.792969 C 64.546875 73.871094 67.480469 77.359375 71.929688 80.261719 C 76.375 83.101562 82.769531 84.523438 91.105469 84.523438 L 91.105469 44.132812 C 91.105469 36.90625 90.671875 32.242188 89.808594 30.144531 C 89.003906 27.980469 87.277344 26.28125 84.621094 25.046875 C 81.964844 23.8125 77.796875 23.164062 72.113281 23.101562 L 72.113281 19.675781 L 127.882812 19.675781 L 127.882812 23.101562 C 122.199219 23.164062 118.03125 23.8125 115.375 25.046875 C 112.71875 26.222656 110.960938 27.886719 110.09375 30.050781 C 109.292969 32.210938 108.890625 36.90625 108.890625 44.132812 Z M 108.894531 84.523438 " />
  </g>
</svg>